<mxfile host="app.diagrams.net" modified="2024-08-31T11:13:28.180Z" agent="Mozilla/5.0 (Windows NT 10.0; Win64; x64) AppleWebKit/537.36 (KHTML, like Gecko) Chrome/128.0.0.0 Safari/537.36" etag="2oYEJXGq4SMh_v-NTA9l" version="24.6.3" type="device">
  <diagram id="C5RBs43oDa-KdzZeNtuy" name="Page-1">
    <mxGraphModel dx="1221" dy="759" grid="1" gridSize="10" guides="1" tooltips="1" connect="1" arrows="1" fold="1" page="1" pageScale="1" pageWidth="827" pageHeight="1169" math="0" shadow="0">
      <root>
        <mxCell id="WIyWlLk6GJQsqaUBKTNV-0" />
        <mxCell id="WIyWlLk6GJQsqaUBKTNV-1" parent="WIyWlLk6GJQsqaUBKTNV-0" />
        <mxCell id="7uBWCVjgEPYc2OaV9h_d-5" style="edgeStyle=orthogonalEdgeStyle;rounded=0;orthogonalLoop=1;jettySize=auto;html=1;exitX=0.5;exitY=0.5;exitDx=0;exitDy=0;exitPerimeter=0;entryX=0;entryY=0.5;entryDx=0;entryDy=0;" edge="1" parent="WIyWlLk6GJQsqaUBKTNV-1" source="7uBWCVjgEPYc2OaV9h_d-0" target="7uBWCVjgEPYc2OaV9h_d-47">
          <mxGeometry relative="1" as="geometry">
            <Array as="points">
              <mxPoint x="100" y="310" />
              <mxPoint x="100" y="310" />
            </Array>
          </mxGeometry>
        </mxCell>
        <mxCell id="7uBWCVjgEPYc2OaV9h_d-0" value="Người thuê" style="shape=umlActor;verticalLabelPosition=bottom;verticalAlign=top;html=1;outlineConnect=0;" vertex="1" parent="WIyWlLk6GJQsqaUBKTNV-1">
          <mxGeometry x="60" y="280" width="30" height="60" as="geometry" />
        </mxCell>
        <mxCell id="7uBWCVjgEPYc2OaV9h_d-6" style="edgeStyle=orthogonalEdgeStyle;rounded=0;orthogonalLoop=1;jettySize=auto;html=1;exitX=0.5;exitY=0.5;exitDx=0;exitDy=0;exitPerimeter=0;entryX=1;entryY=0.5;entryDx=0;entryDy=0;" edge="1" parent="WIyWlLk6GJQsqaUBKTNV-1" source="7uBWCVjgEPYc2OaV9h_d-3" target="7uBWCVjgEPYc2OaV9h_d-47">
          <mxGeometry relative="1" as="geometry">
            <mxPoint x="600" y="310" as="targetPoint" />
            <Array as="points" />
          </mxGeometry>
        </mxCell>
        <mxCell id="7uBWCVjgEPYc2OaV9h_d-3" value="Người cho thuê" style="shape=umlActor;verticalLabelPosition=bottom;verticalAlign=top;html=1;outlineConnect=0;" vertex="1" parent="WIyWlLk6GJQsqaUBKTNV-1">
          <mxGeometry x="310" y="280" width="30" height="60" as="geometry" />
        </mxCell>
        <mxCell id="7uBWCVjgEPYc2OaV9h_d-92" style="edgeStyle=orthogonalEdgeStyle;rounded=0;orthogonalLoop=1;jettySize=auto;html=1;exitX=0.5;exitY=1;exitDx=0;exitDy=0;entryX=0.5;entryY=0;entryDx=0;entryDy=0;" edge="1" parent="WIyWlLk6GJQsqaUBKTNV-1" source="7uBWCVjgEPYc2OaV9h_d-7" target="7uBWCVjgEPYc2OaV9h_d-17">
          <mxGeometry relative="1" as="geometry" />
        </mxCell>
        <mxCell id="7uBWCVjgEPYc2OaV9h_d-93" style="edgeStyle=orthogonalEdgeStyle;rounded=0;orthogonalLoop=1;jettySize=auto;html=1;exitX=0.5;exitY=1;exitDx=0;exitDy=0;entryX=0;entryY=0.25;entryDx=0;entryDy=0;" edge="1" parent="WIyWlLk6GJQsqaUBKTNV-1" source="7uBWCVjgEPYc2OaV9h_d-7" target="7uBWCVjgEPYc2OaV9h_d-16">
          <mxGeometry relative="1" as="geometry">
            <Array as="points">
              <mxPoint x="201" y="440" />
              <mxPoint x="40" y="440" />
              <mxPoint x="40" y="955" />
            </Array>
          </mxGeometry>
        </mxCell>
        <mxCell id="7uBWCVjgEPYc2OaV9h_d-7" value="Đăng nhập" style="rounded=1;whiteSpace=wrap;html=1;" vertex="1" parent="WIyWlLk6GJQsqaUBKTNV-1">
          <mxGeometry x="141" y="360" width="120" height="60" as="geometry" />
        </mxCell>
        <mxCell id="7uBWCVjgEPYc2OaV9h_d-90" style="edgeStyle=orthogonalEdgeStyle;rounded=0;orthogonalLoop=1;jettySize=auto;html=1;exitX=1;exitY=0.75;exitDx=0;exitDy=0;entryX=0.5;entryY=0;entryDx=0;entryDy=0;" edge="1" parent="WIyWlLk6GJQsqaUBKTNV-1" source="7uBWCVjgEPYc2OaV9h_d-17" target="7uBWCVjgEPYc2OaV9h_d-58">
          <mxGeometry relative="1" as="geometry" />
        </mxCell>
        <mxCell id="7uBWCVjgEPYc2OaV9h_d-94" value="&lt;b&gt;Đăng&amp;nbsp;&lt;/b&gt;&lt;div&gt;&lt;b&gt;phòng&amp;nbsp;&lt;/b&gt;&lt;/div&gt;&lt;div&gt;&lt;b&gt;trọ&lt;/b&gt;&lt;/div&gt;" style="edgeStyle=orthogonalEdgeStyle;rounded=0;orthogonalLoop=1;jettySize=auto;html=1;exitX=1;exitY=0.25;exitDx=0;exitDy=0;entryX=0;entryY=0.25;entryDx=0;entryDy=0;" edge="1" parent="WIyWlLk6GJQsqaUBKTNV-1" source="7uBWCVjgEPYc2OaV9h_d-17" target="7uBWCVjgEPYc2OaV9h_d-23">
          <mxGeometry relative="1" as="geometry" />
        </mxCell>
        <mxCell id="7uBWCVjgEPYc2OaV9h_d-17" value="Giao diện người cho thuê" style="swimlane;whiteSpace=wrap;html=1;" vertex="1" parent="WIyWlLk6GJQsqaUBKTNV-1">
          <mxGeometry x="81" y="490" width="240" height="260" as="geometry">
            <mxRectangle x="600" y="545" width="180" height="30" as="alternateBounds" />
          </mxGeometry>
        </mxCell>
        <mxCell id="7uBWCVjgEPYc2OaV9h_d-41" value="Đăng phòng" style="rounded=1;whiteSpace=wrap;html=1;" vertex="1" parent="7uBWCVjgEPYc2OaV9h_d-17">
          <mxGeometry x="10" y="35" width="100" height="60" as="geometry" />
        </mxCell>
        <mxCell id="7uBWCVjgEPYc2OaV9h_d-42" value="Xem bình luận&amp;nbsp;&lt;div&gt;đánh giá&lt;/div&gt;" style="rounded=1;whiteSpace=wrap;html=1;" vertex="1" parent="7uBWCVjgEPYc2OaV9h_d-17">
          <mxGeometry x="127" y="35" width="100" height="60" as="geometry" />
        </mxCell>
        <mxCell id="7uBWCVjgEPYc2OaV9h_d-43" value="Lịch sử&amp;nbsp;&lt;div&gt;cho thuê&lt;/div&gt;" style="rounded=1;whiteSpace=wrap;html=1;" vertex="1" parent="7uBWCVjgEPYc2OaV9h_d-17">
          <mxGeometry x="10" y="110" width="100" height="60" as="geometry" />
        </mxCell>
        <mxCell id="7uBWCVjgEPYc2OaV9h_d-45" value="" style="rounded=1;whiteSpace=wrap;html=1;" vertex="1" parent="7uBWCVjgEPYc2OaV9h_d-17">
          <mxGeometry x="127" y="110" width="100" height="60" as="geometry" />
        </mxCell>
        <mxCell id="7uBWCVjgEPYc2OaV9h_d-85" style="edgeStyle=orthogonalEdgeStyle;rounded=0;orthogonalLoop=1;jettySize=auto;html=1;exitX=0.5;exitY=1;exitDx=0;exitDy=0;entryX=0.5;entryY=0;entryDx=0;entryDy=0;" edge="1" parent="WIyWlLk6GJQsqaUBKTNV-1" source="7uBWCVjgEPYc2OaV9h_d-23" target="7uBWCVjgEPYc2OaV9h_d-58">
          <mxGeometry relative="1" as="geometry" />
        </mxCell>
        <mxCell id="7uBWCVjgEPYc2OaV9h_d-23" value="Phòng trọ" style="swimlane;whiteSpace=wrap;html=1;" vertex="1" parent="WIyWlLk6GJQsqaUBKTNV-1">
          <mxGeometry x="480" y="320" width="320" height="260" as="geometry">
            <mxRectangle x="270" y="380" width="150" height="30" as="alternateBounds" />
          </mxGeometry>
        </mxCell>
        <mxCell id="7uBWCVjgEPYc2OaV9h_d-27" value="Địa chỉ&lt;div&gt;khu vực&lt;/div&gt;" style="ellipse;whiteSpace=wrap;html=1;" vertex="1" parent="7uBWCVjgEPYc2OaV9h_d-23">
          <mxGeometry x="11" y="35" width="79" height="55" as="geometry" />
        </mxCell>
        <mxCell id="7uBWCVjgEPYc2OaV9h_d-28" value="&lt;span style=&quot;text-decoration-line: underline;&quot;&gt;Mã phòng&lt;/span&gt;" style="ellipse;whiteSpace=wrap;html=1;" vertex="1" parent="7uBWCVjgEPYc2OaV9h_d-23">
          <mxGeometry x="111" y="35" width="79" height="55" as="geometry" />
        </mxCell>
        <mxCell id="7uBWCVjgEPYc2OaV9h_d-29" value="Thiết bị&amp;nbsp;&lt;div&gt;có sẵn&lt;/div&gt;" style="ellipse;whiteSpace=wrap;html=1;" vertex="1" parent="7uBWCVjgEPYc2OaV9h_d-23">
          <mxGeometry x="11" y="110" width="79" height="55" as="geometry" />
        </mxCell>
        <mxCell id="7uBWCVjgEPYc2OaV9h_d-30" value="Mô hình" style="ellipse;whiteSpace=wrap;html=1;" vertex="1" parent="7uBWCVjgEPYc2OaV9h_d-23">
          <mxGeometry x="110.5" y="110" width="79" height="55" as="geometry" />
        </mxCell>
        <mxCell id="7uBWCVjgEPYc2OaV9h_d-31" value="Giá thuê" style="ellipse;whiteSpace=wrap;html=1;" vertex="1" parent="7uBWCVjgEPYc2OaV9h_d-23">
          <mxGeometry x="210" y="35" width="79" height="55" as="geometry" />
        </mxCell>
        <mxCell id="7uBWCVjgEPYc2OaV9h_d-32" value="Diện tích" style="ellipse;whiteSpace=wrap;html=1;" vertex="1" parent="7uBWCVjgEPYc2OaV9h_d-23">
          <mxGeometry x="210" y="110" width="79" height="55" as="geometry" />
        </mxCell>
        <mxCell id="7uBWCVjgEPYc2OaV9h_d-33" value="Hình ảnh" style="ellipse;whiteSpace=wrap;html=1;fontStyle=4;strokeWidth=1;" vertex="1" parent="7uBWCVjgEPYc2OaV9h_d-23">
          <mxGeometry x="114" y="184.5" width="79" height="55" as="geometry" />
        </mxCell>
        <mxCell id="7uBWCVjgEPYc2OaV9h_d-34" value="Mô tả thêm" style="ellipse;whiteSpace=wrap;html=1;" vertex="1" parent="7uBWCVjgEPYc2OaV9h_d-23">
          <mxGeometry x="11" y="184.5" width="79" height="55" as="geometry" />
        </mxCell>
        <mxCell id="7uBWCVjgEPYc2OaV9h_d-35" value="Số người ở diện kiến" style="ellipse;whiteSpace=wrap;html=1;" vertex="1" parent="7uBWCVjgEPYc2OaV9h_d-23">
          <mxGeometry x="210" y="184.5" width="79" height="55" as="geometry" />
        </mxCell>
        <mxCell id="7uBWCVjgEPYc2OaV9h_d-55" style="edgeStyle=orthogonalEdgeStyle;rounded=0;orthogonalLoop=1;jettySize=auto;html=1;exitX=0.5;exitY=1;exitDx=0;exitDy=0;entryX=0.5;entryY=0;entryDx=0;entryDy=0;" edge="1" parent="WIyWlLk6GJQsqaUBKTNV-1" source="7uBWCVjgEPYc2OaV9h_d-47" target="7uBWCVjgEPYc2OaV9h_d-7">
          <mxGeometry relative="1" as="geometry" />
        </mxCell>
        <mxCell id="7uBWCVjgEPYc2OaV9h_d-47" value="Tạo tài khoản&lt;div&gt;cá nhân&lt;/div&gt;" style="rounded=1;whiteSpace=wrap;html=1;" vertex="1" parent="WIyWlLk6GJQsqaUBKTNV-1">
          <mxGeometry x="141" y="280" width="120" height="60" as="geometry" />
        </mxCell>
        <mxCell id="7uBWCVjgEPYc2OaV9h_d-50" value="Các tính năng của web tìm thuê phòng trọ" style="swimlane;fontStyle=0;childLayout=stackLayout;horizontal=1;startSize=30;horizontalStack=0;resizeParent=1;resizeParentMax=0;resizeLast=0;collapsible=1;marginBottom=0;whiteSpace=wrap;html=1;" vertex="1" parent="WIyWlLk6GJQsqaUBKTNV-1">
          <mxGeometry x="81" y="120" width="279" height="120" as="geometry">
            <mxRectangle x="280" y="40" width="260" height="30" as="alternateBounds" />
          </mxGeometry>
        </mxCell>
        <mxCell id="7uBWCVjgEPYc2OaV9h_d-51" value="Đăng thông tin cho thuê nhà" style="text;strokeColor=none;fillColor=none;align=left;verticalAlign=middle;spacingLeft=4;spacingRight=4;overflow=hidden;points=[[0,0.5],[1,0.5]];portConstraint=eastwest;rotatable=0;whiteSpace=wrap;html=1;" vertex="1" parent="7uBWCVjgEPYc2OaV9h_d-50">
          <mxGeometry y="30" width="279" height="30" as="geometry" />
        </mxCell>
        <mxCell id="7uBWCVjgEPYc2OaV9h_d-52" value="Lọc tìm kiếm nhà trọ&amp;nbsp;" style="text;strokeColor=none;fillColor=none;align=left;verticalAlign=middle;spacingLeft=4;spacingRight=4;overflow=hidden;points=[[0,0.5],[1,0.5]];portConstraint=eastwest;rotatable=0;whiteSpace=wrap;html=1;" vertex="1" parent="7uBWCVjgEPYc2OaV9h_d-50">
          <mxGeometry y="60" width="279" height="30" as="geometry" />
        </mxCell>
        <mxCell id="7uBWCVjgEPYc2OaV9h_d-53" value="Gia hạn và kết thúc hợp đồng thuê nhà" style="text;strokeColor=none;fillColor=none;align=left;verticalAlign=middle;spacingLeft=4;spacingRight=4;overflow=hidden;points=[[0,0.5],[1,0.5]];portConstraint=eastwest;rotatable=0;whiteSpace=wrap;html=1;" vertex="1" parent="7uBWCVjgEPYc2OaV9h_d-50">
          <mxGeometry y="90" width="279" height="30" as="geometry" />
        </mxCell>
        <mxCell id="7uBWCVjgEPYc2OaV9h_d-58" value="Đơn giao dịch" style="swimlane;whiteSpace=wrap;html=1;" vertex="1" parent="WIyWlLk6GJQsqaUBKTNV-1">
          <mxGeometry x="490" y="760" width="300" height="260" as="geometry">
            <mxRectangle x="270" y="770" width="150" height="30" as="alternateBounds" />
          </mxGeometry>
        </mxCell>
        <mxCell id="7uBWCVjgEPYc2OaV9h_d-59" value="Mã người thuê" style="ellipse;whiteSpace=wrap;html=1;fontStyle=4" vertex="1" parent="7uBWCVjgEPYc2OaV9h_d-58">
          <mxGeometry x="11" y="35" width="79" height="55" as="geometry" />
        </mxCell>
        <mxCell id="7uBWCVjgEPYc2OaV9h_d-60" value="Mã người&amp;nbsp;&lt;div&gt;cho thuê&lt;/div&gt;" style="ellipse;whiteSpace=wrap;html=1;fontStyle=4" vertex="1" parent="7uBWCVjgEPYc2OaV9h_d-58">
          <mxGeometry x="111" y="35" width="79" height="55" as="geometry" />
        </mxCell>
        <mxCell id="7uBWCVjgEPYc2OaV9h_d-61" value="Cam kết&amp;nbsp;&lt;div&gt;các bên&amp;nbsp;&lt;/div&gt;&lt;div&gt;liên quan&lt;/div&gt;" style="ellipse;whiteSpace=wrap;html=1;" vertex="1" parent="7uBWCVjgEPYc2OaV9h_d-58">
          <mxGeometry x="11" y="110" width="79" height="55" as="geometry" />
        </mxCell>
        <mxCell id="7uBWCVjgEPYc2OaV9h_d-62" value="Thời điểm tạo đơn giao dịch" style="ellipse;whiteSpace=wrap;html=1;" vertex="1" parent="7uBWCVjgEPYc2OaV9h_d-58">
          <mxGeometry x="110.5" y="110" width="79" height="55" as="geometry" />
        </mxCell>
        <mxCell id="7uBWCVjgEPYc2OaV9h_d-63" value="Mã phòng" style="ellipse;whiteSpace=wrap;html=1;fontStyle=4" vertex="1" parent="7uBWCVjgEPYc2OaV9h_d-58">
          <mxGeometry x="210" y="35" width="79" height="55" as="geometry" />
        </mxCell>
        <mxCell id="7uBWCVjgEPYc2OaV9h_d-64" value="Thời điểm hợp đồng có hiệu lực" style="ellipse;whiteSpace=wrap;html=1;" vertex="1" parent="7uBWCVjgEPYc2OaV9h_d-58">
          <mxGeometry x="210" y="110" width="79" height="55" as="geometry" />
        </mxCell>
        <mxCell id="7uBWCVjgEPYc2OaV9h_d-65" value="Báo cáo&amp;nbsp;&lt;div&gt;và hủy&amp;nbsp;&lt;/div&gt;&lt;div&gt;hợp đồng&lt;/div&gt;" style="ellipse;whiteSpace=wrap;html=1;fontStyle=0;strokeWidth=1;" vertex="1" parent="7uBWCVjgEPYc2OaV9h_d-58">
          <mxGeometry x="114" y="184.5" width="79" height="55" as="geometry" />
        </mxCell>
        <mxCell id="7uBWCVjgEPYc2OaV9h_d-66" value="Tiền cọc,&amp;nbsp;&lt;div&gt;trả&amp;nbsp;&lt;span style=&quot;background-color: initial;&quot;&gt;tiền thuê&lt;/span&gt;&lt;/div&gt;" style="ellipse;whiteSpace=wrap;html=1;" vertex="1" parent="7uBWCVjgEPYc2OaV9h_d-58">
          <mxGeometry x="11" y="184.5" width="79" height="55" as="geometry" />
        </mxCell>
        <mxCell id="7uBWCVjgEPYc2OaV9h_d-67" value="Kết thúc&amp;nbsp;&lt;div&gt;hợp đồng&lt;/div&gt;" style="ellipse;whiteSpace=wrap;html=1;" vertex="1" parent="7uBWCVjgEPYc2OaV9h_d-58">
          <mxGeometry x="210" y="184.5" width="79" height="55" as="geometry" />
        </mxCell>
        <mxCell id="7uBWCVjgEPYc2OaV9h_d-73" value="Lưu ý: giao diện người cho thuê và người thuê đều xuất hiện ở một tài khoản" style="shape=process;whiteSpace=wrap;html=1;backgroundOutline=1;" vertex="1" parent="WIyWlLk6GJQsqaUBKTNV-1">
          <mxGeometry x="90" y="790" width="211" height="60" as="geometry" />
        </mxCell>
        <mxCell id="7uBWCVjgEPYc2OaV9h_d-80" value="Công nghệ sử dụng" style="swimlane;fontStyle=0;childLayout=stackLayout;horizontal=1;startSize=30;horizontalStack=0;resizeParent=1;resizeParentMax=0;resizeLast=0;collapsible=1;marginBottom=0;whiteSpace=wrap;html=1;" vertex="1" parent="WIyWlLk6GJQsqaUBKTNV-1">
          <mxGeometry x="480" y="120" width="279" height="120" as="geometry" />
        </mxCell>
        <mxCell id="7uBWCVjgEPYc2OaV9h_d-81" value="Font end:&amp;nbsp;" style="text;strokeColor=none;fillColor=none;align=left;verticalAlign=middle;spacingLeft=4;spacingRight=4;overflow=hidden;points=[[0,0.5],[1,0.5]];portConstraint=eastwest;rotatable=0;whiteSpace=wrap;html=1;" vertex="1" parent="7uBWCVjgEPYc2OaV9h_d-80">
          <mxGeometry y="30" width="279" height="30" as="geometry" />
        </mxCell>
        <mxCell id="7uBWCVjgEPYc2OaV9h_d-82" value="Back end:" style="text;strokeColor=none;fillColor=none;align=left;verticalAlign=middle;spacingLeft=4;spacingRight=4;overflow=hidden;points=[[0,0.5],[1,0.5]];portConstraint=eastwest;rotatable=0;whiteSpace=wrap;html=1;" vertex="1" parent="7uBWCVjgEPYc2OaV9h_d-80">
          <mxGeometry y="60" width="279" height="30" as="geometry" />
        </mxCell>
        <mxCell id="7uBWCVjgEPYc2OaV9h_d-83" value="Database:&amp;nbsp;" style="text;strokeColor=none;fillColor=none;align=left;verticalAlign=middle;spacingLeft=4;spacingRight=4;overflow=hidden;points=[[0,0.5],[1,0.5]];portConstraint=eastwest;rotatable=0;whiteSpace=wrap;html=1;" vertex="1" parent="7uBWCVjgEPYc2OaV9h_d-80">
          <mxGeometry y="90" width="279" height="30" as="geometry" />
        </mxCell>
        <mxCell id="7uBWCVjgEPYc2OaV9h_d-84" value="Web tìm thuê phòng trọ" style="text;strokeColor=none;fillColor=none;html=1;fontSize=24;fontStyle=1;verticalAlign=middle;align=center;" vertex="1" parent="WIyWlLk6GJQsqaUBKTNV-1">
          <mxGeometry x="370" y="30" width="100" height="40" as="geometry" />
        </mxCell>
        <mxCell id="7uBWCVjgEPYc2OaV9h_d-91" style="edgeStyle=orthogonalEdgeStyle;rounded=0;orthogonalLoop=1;jettySize=auto;html=1;exitX=1;exitY=0.75;exitDx=0;exitDy=0;entryX=0.5;entryY=0;entryDx=0;entryDy=0;" edge="1" parent="WIyWlLk6GJQsqaUBKTNV-1" target="7uBWCVjgEPYc2OaV9h_d-58">
          <mxGeometry relative="1" as="geometry">
            <mxPoint x="321" y="1080" as="sourcePoint" />
            <mxPoint x="640" y="755" as="targetPoint" />
            <Array as="points">
              <mxPoint x="321" y="1075" />
              <mxPoint x="400" y="1075" />
              <mxPoint x="400" y="685" />
              <mxPoint x="640" y="685" />
            </Array>
          </mxGeometry>
        </mxCell>
        <mxCell id="7uBWCVjgEPYc2OaV9h_d-16" value="Giao diện người thuê" style="swimlane;whiteSpace=wrap;html=1;" vertex="1" parent="WIyWlLk6GJQsqaUBKTNV-1">
          <mxGeometry x="81" y="890" width="240" height="260" as="geometry">
            <mxRectangle y="545" width="150" height="30" as="alternateBounds" />
          </mxGeometry>
        </mxCell>
        <mxCell id="7uBWCVjgEPYc2OaV9h_d-20" value="Đặt phòng trọ" style="rounded=1;whiteSpace=wrap;html=1;" vertex="1" parent="7uBWCVjgEPYc2OaV9h_d-16">
          <mxGeometry x="10" y="35" width="100" height="60" as="geometry" />
        </mxCell>
        <mxCell id="7uBWCVjgEPYc2OaV9h_d-39" value="&lt;u&gt;Thông tin&amp;nbsp;&lt;br&gt;&lt;/u&gt;&lt;div&gt;&lt;u&gt;&lt;span style=&quot;color: rgba(0, 0, 0, 0); font-family: monospace; font-size: 0px; text-align: start; text-wrap: nowrap; background-color: initial;&quot;&gt;%3CmxGraphModel%3E%3Croot%3E%3CmxCell%20id%3D%220%22%2F%3E%3CmxCell%20id%3D%221%22%20parent%3D%220%22%2F%3E%3CmxCell%20id%3D%222%22%20value%3D%22L%E1%BB%8Bch%20s%E1%BB%AD%26amp%3Bnbsp%3B%26lt%3Bdiv%26gt%3Bmua%20b%C3%A1n%26lt%3B%2Fdiv%26gt%3B%22%20style%3D%22rounded%3D1%3BwhiteSpace%3Dwrap%3Bhtml%3D1%3B%22%20vertex%3D%221%22%20parent%3D%221%22%3E%3CmxGeometry%20x%3D%2214%22%20y%3D%22510%22%20width%3D%22100%22%20height%3D%2260%22%20as%3D%22geometry%22%2F%3E%3C%2FmxCell%3E%3C%2Froot%3E%3C%2FmxGraphModel%3E&lt;/span&gt;cá nhân và&lt;/u&gt;&lt;/div&gt;&lt;div&gt;&lt;u&gt;mã tài khoản&lt;/u&gt;&lt;/div&gt;" style="rounded=1;whiteSpace=wrap;html=1;" vertex="1" parent="7uBWCVjgEPYc2OaV9h_d-16">
          <mxGeometry x="130" y="35" width="100" height="60" as="geometry" />
        </mxCell>
        <mxCell id="7uBWCVjgEPYc2OaV9h_d-40" value="Tìm phòng&amp;nbsp;&lt;div&gt;theo tiêu chí&lt;/div&gt;" style="rounded=1;whiteSpace=wrap;html=1;" vertex="1" parent="7uBWCVjgEPYc2OaV9h_d-16">
          <mxGeometry x="10" y="110" width="100" height="60" as="geometry" />
        </mxCell>
        <mxCell id="7uBWCVjgEPYc2OaV9h_d-44" value="Bình luận&amp;nbsp;&lt;div&gt;đánh giá và&amp;nbsp;&lt;/div&gt;&lt;div&gt;báo cáo vi phạm&lt;/div&gt;" style="rounded=1;whiteSpace=wrap;html=1;" vertex="1" parent="7uBWCVjgEPYc2OaV9h_d-16">
          <mxGeometry x="130" y="110" width="100" height="60" as="geometry" />
        </mxCell>
        <mxCell id="7uBWCVjgEPYc2OaV9h_d-46" value="" style="rounded=1;whiteSpace=wrap;html=1;" vertex="1" parent="7uBWCVjgEPYc2OaV9h_d-16">
          <mxGeometry x="10" y="184.5" width="100" height="60" as="geometry" />
        </mxCell>
      </root>
    </mxGraphModel>
  </diagram>
</mxfile>
